<?xml version="1.0" standalone="no"?>
<!DOCTYPE svg PUBLIC "-//W3C//DTD SVG 20010904//EN"
 "http://www.w3.org/TR/2001/REC-SVG-20010904/DTD/svg10.dtd">
<svg version="1.0" xmlns="http://www.w3.org/2000/svg"
 width="512.000000pt" height="512.000000pt" viewBox="0 0 512.000000 512.000000"
 preserveAspectRatio="xMidYMid meet">
<metadata>
Created by potrace 1.11, written by Peter Selinger 2001-2013
</metadata>
<g transform="translate(0.000000,512.000000) scale(0.100000,-0.100000)"
fill="#000000" stroke="none">
<path d="M2427 4604 c-1 -1 -24 -5 -52 -8 -105 -14 -123 -18 -225 -52 -102
-34 -320 -140 -320 -156 0 -4 -4 -8 -10 -8 -5 0 -34 -17 -62 -37 -265 -189
-690 -635 -937 -981 -150 -211 -230 -405 -285 -692 -64 -334 39 -652 331
-1020 107 -135 453 -472 650 -632 363 -296 534 -386 878 -463 361 -82 693 18
1075 322 115 91 449 426 557 559 18 21 58 71 90 109 278 338 375 527 448 869
39 184 37 308 -9 482 -43 164 -129 338 -244 492 -31 43 -59 79 -62 82 -3 3
-30 34 -60 70 -57 68 -265 278 -387 390 -90 84 -345 292 -446 365 -207 148
-429 240 -701 290 -76 14 -221 26 -229 19z"/>
</g>
</svg>
